<svg id="svg" xmlns="http://www.w3.org/2000/svg" xmlns:xlink="http://www.w3.org/1999/xlink" width="500" height="500.78247261345854" viewBox="0, 0, 500,500.78247261345854"><g id="svgg"><path id="path0" d="M259.489 0.165 C 259.472 0.290,259.465 0.458,259.474 0.540 C 259.482 0.622,257.383 2.792,254.810 5.363 L 250.130 10.036 250.130 23.621 L 250.130 37.205 245.002 42.533 L 239.874 47.861 236.721 48.047 C 223.130 48.848,206.301 51.843,193.293 55.775 L 190.837 56.517 184.298 53.334 L 177.759 50.150 173.157 37.790 C 170.626 30.992,168.394 25.234,168.198 24.993 C 168.001 24.753,164.939 23.241,161.393 21.632 L 154.946 18.708 153.568 19.295 C 128.335 30.045,104.232 45.215,84.157 62.981 L 80.334 66.365 80.334 73.677 L 80.334 80.989 89.984 90.636 L 99.635 100.284 99.635 107.550 L 99.635 114.815 97.907 116.680 C 89.609 125.634,78.626 141.251,72.290 153.104 L 70.965 155.582 64.021 158.007 L 57.078 160.433 44.878 154.812 C 38.168 151.721,32.593 149.191,32.489 149.191 C 32.022 149.191,19.137 153.953,18.858 154.229 C 17.616 155.456,10.923 175.248,7.992 186.359 C 3.503 203.381,0.000 226.241,0.000 238.526 L -0.000 240.615 5.023 245.634 L 10.047 250.652 23.653 250.652 L 37.259 250.652 42.619 255.803 L 47.978 260.955 47.986 262.520 C 48.041 272.986,51.608 293.697,55.637 306.949 L 56.536 309.907 53.334 316.462 L 50.132 323.018 37.520 327.719 L 24.909 332.420 24.341 333.594 C 24.028 334.240,22.632 337.260,21.237 340.306 L 18.702 345.844 20.470 349.956 C 31.226 374.972,46.364 398.681,64.106 418.297 L 66.053 420.449 73.257 420.449 L 80.462 420.449 90.127 410.785 L 99.793 401.122 107.117 400.964 L 114.441 400.806 117.275 403.352 C 126.713 411.832,139.718 420.930,152.321 427.868 C 153.828 428.697,155.098 429.411,155.145 429.453 C 155.297 429.591,159.901 442.736,159.939 443.140 C 159.959 443.356,157.446 449.010,154.355 455.706 L 148.733 467.880 151.219 474.766 L 153.705 481.651 158.425 483.524 C 184.091 493.709,216.956 500.782,238.607 500.782 L 240.345 500.782 245.368 495.764 L 250.391 490.746 250.391 477.082 L 250.391 463.417 255.507 458.104 L 260.622 452.791 262.092 452.790 C 272.283 452.780,293.210 449.126,307.373 444.883 L 309.451 444.261 313.372 446.134 C 315.528 447.164,318.515 448.643,320.009 449.421 L 322.725 450.835 327.399 463.394 L 332.072 475.953 338.753 479.004 L 345.434 482.055 349.230 480.423 C 374.865 469.396,396.731 455.503,417.495 437.051 L 419.887 434.924 419.907 427.492 L 419.927 420.060 410.305 410.408 L 400.684 400.756 400.521 393.584 L 400.358 386.411 402.464 384.064 C 411.474 374.021,419.319 362.837,427.788 347.960 L 429.186 345.503 436.054 343.101 L 442.922 340.698 455.094 346.317 C 461.789 349.408,467.384 351.935,467.527 351.932 C 467.671 351.929,470.768 350.854,474.410 349.542 C 478.051 348.230,481.064 347.157,481.105 347.157 C 481.379 347.157,485.846 335.082,487.828 328.989 C 494.819 307.488,500.000 279.195,500.000 262.517 L 500.000 260.428 494.977 255.410 L 489.953 250.391 476.300 250.391 L 462.647 250.391 457.368 245.308 L 452.089 240.225 451.920 236.877 C 451.276 224.164,448.452 208.086,444.505 194.664 L 443.496 191.231 446.644 184.699 L 449.791 178.168 460.616 174.125 C 466.569 171.901,472.275 169.775,473.296 169.400 L 475.152 168.719 478.213 162.036 L 481.275 155.354 480.029 152.468 C 469.339 127.692,454.235 103.875,436.808 84.311 L 433.729 80.856 426.370 80.856 L 419.011 80.856 409.364 90.506 L 399.716 100.156 392.582 100.156 L 385.449 100.156 382.018 97.125 C 371.972 88.252,360.703 80.381,347.418 72.959 L 344.418 71.284 341.986 64.369 L 339.553 57.455 344.952 45.747 C 347.921 39.307,350.473 33.774,350.621 33.451 C 350.964 32.709,345.809 19.170,345.103 18.955 C 344.870 18.884,342.743 18.066,340.376 17.139 C 317.256 8.078,291.971 2.436,266.432 0.640 C 263.419 0.428,260.632 0.183,260.237 0.097 C 259.843 0.010,259.506 0.041,259.489 0.165 M262.650 108.104 C 336.922 115.964,392.109 176.862,392.045 250.891 C 391.966 341.160,308.807 408.770,220.083 390.699 C 188.333 384.233,159.157 366.485,138.212 340.897 C 86.873 278.178,98.204 185.209,163.156 136.245 C 185.921 119.083,211.910 109.620,241.784 107.613 C 245.021 107.396,259.082 107.727,262.650 108.104 " stroke="none" fill="#000000" fill-rule="evenodd"></path></g></svg>